<svg id="visual" viewBox="0 0 960 540" width="960" height="540" xmlns="http://www.w3.org/2000/svg" xmlns:xlink="http://www.w3.org/1999/xlink" version="1.1"><rect x="0" y="0" width="960" height="540" fill="#fff"></rect><path d="M0 367L22.8 358.7C45.7 350.3 91.3 333.7 137 339.8C182.7 346 228.3 375 274 388.5C319.7 402 365.3 400 411.2 394.8C457 389.7 503 381.3 548.8 375C594.7 368.7 640.3 364.3 686 361C731.7 357.7 777.3 355.3 823 358.5C868.7 361.7 914.3 370.3 937.2 374.7L960 379L960 541L937.2 541C914.3 541 868.7 541 823 541C777.3 541 731.7 541 686 541C640.3 541 594.7 541 548.8 541C503 541 457 541 411.2 541C365.3 541 319.7 541 274 541C228.3 541 182.7 541 137 541C91.3 541 45.7 541 22.8 541L0 541Z" fill="#fa7268"></path><path d="M0 430L22.8 424.7C45.7 419.3 91.3 408.7 137 405C182.7 401.3 228.3 404.7 274 402.2C319.7 399.7 365.3 391.3 411.2 390.7C457 390 503 397 548.8 402.3C594.7 407.7 640.3 411.3 686 414.2C731.7 417 777.3 419 823 411.3C868.7 403.7 914.3 386.3 937.2 377.7L960 369L960 541L937.2 541C914.3 541 868.7 541 823 541C777.3 541 731.7 541 686 541C640.3 541 594.7 541 548.8 541C503 541 457 541 411.2 541C365.3 541 319.7 541 274 541C228.3 541 182.7 541 137 541C91.3 541 45.7 541 22.8 541L0 541Z" fill="#ef5f67"></path><path d="M0 406L22.8 404.3C45.7 402.7 91.3 399.3 137 399C182.7 398.7 228.3 401.3 274 402.8C319.7 404.3 365.3 404.7 411.2 403C457 401.3 503 397.7 548.8 406.7C594.7 415.7 640.3 437.3 686 445.8C731.7 454.3 777.3 449.7 823 447.2C868.7 444.7 914.3 444.3 937.2 444.2L960 444L960 541L937.2 541C914.3 541 868.7 541 823 541C777.3 541 731.7 541 686 541C640.3 541 594.7 541 548.8 541C503 541 457 541 411.2 541C365.3 541 319.7 541 274 541C228.3 541 182.7 541 137 541C91.3 541 45.7 541 22.8 541L0 541Z" fill="#e34c67"></path><path d="M0 465L22.8 464.3C45.7 463.7 91.3 462.3 137 456.8C182.7 451.3 228.3 441.7 274 440.7C319.7 439.7 365.3 447.3 411.2 448.3C457 449.3 503 443.7 548.8 446.5C594.7 449.3 640.3 460.7 686 468.7C731.7 476.7 777.3 481.3 823 480.3C868.7 479.3 914.3 472.7 937.2 469.3L960 466L960 541L937.2 541C914.3 541 868.7 541 823 541C777.3 541 731.7 541 686 541C640.3 541 594.7 541 548.8 541C503 541 457 541 411.2 541C365.3 541 319.7 541 274 541C228.3 541 182.7 541 137 541C91.3 541 45.7 541 22.8 541L0 541Z" fill="#d53867"></path><path d="M0 513L22.8 508.8C45.7 504.7 91.3 496.3 137 493.2C182.7 490 228.3 492 274 494C319.7 496 365.3 498 411.2 499.5C457 501 503 502 548.8 497.5C594.7 493 640.3 483 686 481.7C731.7 480.3 777.3 487.7 823 492C868.7 496.3 914.3 497.7 937.2 498.3L960 499L960 541L937.2 541C914.3 541 868.7 541 823 541C777.3 541 731.7 541 686 541C640.3 541 594.7 541 548.8 541C503 541 457 541 411.2 541C365.3 541 319.7 541 274 541C228.3 541 182.7 541 137 541C91.3 541 45.7 541 22.8 541L0 541Z" fill="#c62368"></path></svg>